<?xml version="1.0" encoding="utf-8"?>
<!-- Generator: Adobe Illustrator 26.5.0, SVG Export Plug-In . SVG Version: 6.00 Build 0)  -->
<svg version="1.1" xmlns="http://www.w3.org/2000/svg" xmlns:xlink="http://www.w3.org/1999/xlink" x="0px" y="0px"
	 viewBox="0 0 595.3 616.5" style="enable-background:new 0 0 595.3 616.5;" xml:space="preserve">
<style type="text/css">
	.st0{fill-rule:evenodd;clip-rule:evenodd;}
</style>
<g id="Слой_2">
	<path class="st0" d="M510.1,315.9c17.7-9.7,32.3,2.9,18.3,17.4L367,528.2c-27,25.7-47.4,9.5-26.8-21.5l92.5-142.5
		c7.6-11.6,7.6-9.9,17.8-15.6L510.1,315.9z"/>
</g>
<g id="Слой_4">
	<path class="st0" d="M326.3,74.8c-8-15.3,6.4-27.6,22.6-10.2l183.8,187.9c12.8,13.1,10.1,30.6-6.1,39.2L457,326.1
		c-8.2,4.5-18.2,1.3-22.4-7.1L326.3,74.8z"/>
</g>
<g id="Слой_1">
	<path class="st0" d="M56.6,277.9l203-206c18.8-19.1,42.6-14.6,53.2,10L403,291.8c10.6,24.6-2.5,43.3-29.3,41.7L71,315.4
		C44.2,313.8,37.8,297,56.6,277.9z"/>
</g>
<g id="Слой_3">
	<path class="st0" d="M59,366.3l197.8,166.4c25.7,18.3,40.2,18.2,54-3.6l86.3-136.3c13.5-23.2,2.7-43.3-24-44.9l-295.4-17
		C51,329.2,42.6,345.1,59,366.3z"/>
</g>
</svg>
